# Wavefront OBJ file
# Exported by Maverick Model 3D 1.3.12
# Sun Jan 01 14:30:49 2023

mtllib bg_jimmy_06_hi.mtl

# 8 Vertices
v 47.553671 0.0 91.210429
v -73.157664 0.000008 -11.684874
v -57.476315 0.000012 -91.210429
v 73.157662 0.000008 -65.451194
v 73.157664 68.303942 -65.451187
v -57.476314 68.303946 -91.210417
v 68.641435 0.000007 -42.547836
v -59.901691 0.000011 -78.910476

# 18 Texture Coordinates
vt 0.044312 0.017107
vt 0.853668 0.017107
vt 0.853668 0.34357
vt 0.853668 0.34357
vt 0.044312 0.214345
vt 0.044312 0.017107
vt 0.003504 0.493199
vt 0.996496 0.493199
vt 0.996496 0.996496
vt 0.996496 0.996496
vt 0.003504 0.996496
vt 0.003504 0.493199
vt 0.962489 0.404782
vt 0.003504 0.465993
vt 0.996496 0.465993
vt 0.003504 0.465993
vt 0.962489 0.404782
vt -0.037304 0.404782

# 18 Vertex Normals
vn 0.0 1.0 0.0
vn 0.0 1.0 0.0
vn 0.0 1.0 0.0
vn 0.0 1.0 0.0
vn 0.0 1.0 0.0
vn 0.0 1.0 0.0
vn -0.193461 -0.0 0.981108
vn -0.193461 -0.0 0.981108
vn -0.193461 -0.0 0.981108
vn -0.193461 -0.0 0.981108
vn -0.193461 -0.0 0.981108
vn -0.193461 -0.0 0.981108
vn 0.0 1.0 0.0
vn 0.0 1.0 0.0
vn 0.0 1.0 0.0
vn 0.0 1.0 0.0
vn 0.0 1.0 0.0
vn 0.0 1.0 0.0

# bgjimmy06, 6 grouped triangles

usemtl bgjimmy06sset
o bgjimmy06
g bgjimmy06

f 2/1/1 1/2/2 7/3/3
f 7/4/4 8/5/5 2/6/6
f 3/7/7 4/8/8 5/9/9
f 5/10/10 6/11/11 3/12/12
f 4/13/13 8/14/14 7/15/15
f 8/16/16 4/17/17 3/18/18
