# Blender v2.79 (sub 0) OBJ File: 'Coin 2.blend'
# www.blender.org
mtllib Coin 2.mtl
o Cylinder.001
v 0.000000 0.079494 -1.000000
v 0.000000 0.209887 -1.000000
v 0.587785 0.079494 -0.809017
v 0.587785 0.209887 -0.809017
v 0.951057 0.079494 -0.309017
v 0.951057 0.209887 -0.309017
v 0.951056 0.079494 0.309017
v 0.951056 0.209887 0.309017
v 0.587785 0.079494 0.809017
v 0.587785 0.209887 0.809017
v -0.000000 0.079494 1.000000
v -0.000000 0.209887 1.000000
v -0.587785 0.079494 0.809017
v -0.587785 0.209887 0.809017
v -0.951056 0.079494 0.309017
v -0.951056 0.209887 0.309017
v -0.951056 0.079494 -0.309017
v -0.951056 0.209887 -0.309017
v -0.587785 0.079494 -0.809017
v -0.587785 0.209887 -0.809017
v 0.000000 0.093509 -0.785043
v 0.461437 0.093509 -0.635113
v 0.461437 0.195873 -0.635113
v 0.000000 0.195873 -0.785043
v 0.746620 0.093509 -0.242592
v 0.746620 0.195873 -0.242592
v 0.746620 0.093509 0.242592
v 0.746620 0.195873 0.242592
v 0.461437 0.093509 0.635113
v 0.461437 0.195873 0.635113
v -0.000000 0.093509 0.785043
v -0.000000 0.195873 0.785043
v -0.461437 0.093509 0.635113
v -0.461437 0.195873 0.635113
v -0.746620 0.093509 0.242592
v -0.746620 0.195873 0.242592
v -0.746620 0.093509 -0.242592
v -0.746620 0.195873 -0.242592
v -0.461437 0.093509 -0.635113
v -0.461437 0.195873 -0.635113
v 0.000000 0.079983 1.000000
v 0.000000 -0.050410 1.000000
v 0.587785 0.079983 0.809017
v 0.587785 -0.050410 0.809017
v 0.951057 0.079983 0.309017
v 0.951057 -0.050410 0.309017
v 0.951056 0.079983 -0.309017
v 0.951056 -0.050409 -0.309017
v 0.587785 0.079983 -0.809017
v 0.587785 -0.050409 -0.809017
v -0.000000 0.079984 -1.000000
v -0.000000 -0.050409 -1.000000
v -0.587785 0.079983 -0.809017
v -0.587785 -0.050409 -0.809017
v -0.951056 0.079983 -0.309017
v -0.951056 -0.050409 -0.309017
v -0.951056 0.079983 0.309017
v -0.951056 -0.050410 0.309017
v -0.587785 0.079983 0.809017
v -0.587785 -0.050410 0.809017
v 0.000000 0.065969 0.785043
v 0.461437 0.065969 0.635113
v 0.461437 -0.036395 0.635113
v 0.000000 -0.036395 0.785043
v 0.746620 0.065969 0.242592
v 0.746620 -0.036395 0.242592
v 0.746620 0.065969 -0.242592
v 0.746620 -0.036395 -0.242592
v 0.461437 0.065969 -0.635113
v 0.461437 -0.036395 -0.635113
v -0.000000 0.065969 -0.785043
v -0.000000 -0.036395 -0.785043
v -0.461437 0.065969 -0.635113
v -0.461437 -0.036395 -0.635113
v -0.746620 0.065969 -0.242592
v -0.746620 -0.036395 -0.242592
v -0.746620 0.065969 0.242592
v -0.746620 -0.036395 0.242592
v -0.461437 0.065969 0.635113
v -0.461437 -0.036395 0.635113
vt 0.231982 0.266504
vt 0.232099 0.257674
vt 0.235738 0.259119
vt 0.235623 0.265383
vt 0.244796 0.263918
vt 0.244651 0.263929
vt 0.245000 0.263945
vt 0.245007 0.264024
vt 0.242534 0.263485
vt 0.243522 0.263425
vt 0.243738 0.263325
vt 0.243186 0.263316
vt 0.237538 0.250535
vt 0.246563 0.247746
vt 0.246250 0.252501
vt 0.239735 0.254309
vt 0.243039 0.264009
vt 0.240810 0.264348
vt 0.242729 0.263475
vt 0.243741 0.263529
vt 0.255535 0.276360
vt 0.245640 0.277561
vt 0.245592 0.273424
vt 0.252481 0.272283
vt 0.255916 0.250710
vt 0.261912 0.258685
vt 0.257015 0.260273
vt 0.252872 0.254684
vt 0.237045 0.273920
vt 0.239293 0.270763
vt 0.244500 0.263567
vt 0.244722 0.263784
vt 0.244835 0.263868
vt 0.244602 0.263592
vt 0.244141 0.263907
vt 0.244608 0.263709
vt 0.177116 0.607751
vt 0.160216 0.659764
vt 0.115971 0.691910
vt 0.061281 0.691910
vt 0.017036 0.659764
vt 0.000136 0.607751
vt 0.017036 0.555738
vt 0.061281 0.523592
vt 0.115971 0.523592
vt 0.160216 0.555738
vt 0.244226 0.263396
vt 0.256909 0.267121
vt 0.261887 0.268685
vt 0.244111 0.263378
vt 0.247003 0.000136
vt 0.403506 0.047945
vt 0.503762 0.180038
vt 0.499380 0.345816
vt 0.400169 0.475977
vt 0.245398 0.523319
vt 0.093316 0.472021
vt 0.000136 0.342260
vt 0.000137 0.182478
vt 0.093702 0.052038
vt 0.714505 0.254375
vt 0.715903 0.255547
vt 0.715144 0.255988
vt 0.714187 0.255137
vt 0.713305 0.256873
vt 0.713271 0.256843
vt 0.713288 0.256811
vt 0.713333 0.256858
vt 0.713167 0.256930
vt 0.713200 0.256961
vt 0.713184 0.256993
vt 0.713137 0.256946
vt 0.716297 0.257488
vt 0.715198 0.259171
vt 0.714655 0.258469
vt 0.715399 0.257310
vt 0.713180 0.256852
vt 0.713159 0.256889
vt 0.713124 0.256884
vt 0.713150 0.256818
vt 0.710754 0.256440
vt 0.711465 0.255080
vt 0.712014 0.255606
vt 0.711474 0.256568
vt 0.713445 0.259738
vt 0.711833 0.259191
vt 0.712284 0.258559
vt 0.713441 0.258907
vt 0.712815 0.254268
vt 0.712990 0.255026
vt 0.713291 0.256949
vt 0.713312 0.256913
vt 0.713339 0.256917
vt 0.713315 0.256974
vt 0.713224 0.256835
vt 0.713220 0.256795
vt 0.520935 0.546782
vt 0.565180 0.514636
vt 0.619869 0.514636
vt 0.664114 0.546782
vt 0.681015 0.598795
vt 0.664114 0.650808
vt 0.619870 0.682954
vt 0.565180 0.682954
vt 0.520935 0.650808
vt 0.504035 0.598795
vt 0.713252 0.257004
vt 0.711588 0.257657
vt 0.710906 0.257932
vt 0.713247 0.256968
vt 0.857574 0.013105
vt 0.999864 0.135838
vt 0.998057 0.323750
vt 0.893989 0.464269
vt 0.737301 0.514363
vt 0.589839 0.466198
vt 0.504035 0.347974
vt 0.504035 0.211375
vt 0.556201 0.082011
vt 0.687514 0.000136
vn 0.0553 -0.9977 0.0402
vn -0.0553 0.9977 -0.0402
vn 0.0553 0.9977 0.0402
vn -0.0211 -0.9977 0.0650
vn -0.0211 0.9977 0.0650
vn 0.0211 -0.9977 -0.0650
vn -0.0684 -0.9977 0.0000
vn 0.0684 -0.9977 0.0000
vn 0.0211 0.9977 -0.0650
vn -0.0684 0.9977 0.0000
vn 0.0000 -1.0000 0.0000
vn 0.3090 0.0000 -0.9511
vn 0.8090 0.0000 -0.5878
vn 1.0000 0.0000 0.0000
vn 0.8090 0.0000 0.5878
vn 0.3090 0.0000 0.9511
vn -0.3090 0.0000 0.9511
vn -0.8090 0.0000 0.5878
vn -1.0000 0.0000 0.0000
vn -0.8090 0.0000 -0.5878
vn -0.3090 0.0000 -0.9511
vn -0.0553 -0.9977 -0.0402
vn 0.0553 0.9977 -0.0402
vn -0.0553 0.9977 0.0402
vn 0.0553 -0.9977 -0.0402
vn -0.0553 -0.9977 0.0402
vn 0.0211 0.9977 0.0650
vn -0.0211 0.9977 -0.0650
vn 0.0211 -0.9977 0.0650
vn -0.0211 -0.9977 -0.0650
vn 0.0684 0.9977 0.0000
vn 0.0000 1.0000 0.0000
usemtl Material.001
s off
f 8/1/1 10/2/1 30/3/1 28/4/1
f 19/5/2 17/6/2 37/7/2 39/8/2
f 9/9/3 7/10/3 27/11/3 29/12/3
f 12/13/4 14/14/4 34/15/4 32/16/4
f 13/17/5 11/18/5 31/19/5 33/20/5
f 2/21/6 4/22/6 23/23/6 24/24/6
f 16/25/7 18/26/7 38/27/7 36/28/7
f 6/29/8 8/1/8 28/4/8 26/30/8
f 3/31/9 1/32/9 21/33/9 22/34/9
f 17/6/10 15/35/10 35/36/10 37/7/10
f 1/37/11 3/38/11 5/39/11 7/40/11 9/41/11 11/42/11 13/43/11 15/44/11 17/45/11 19/46/11
f 21/33/12 24/24/12 23/23/12 22/34/12
f 22/34/13 23/23/13 26/30/13 25/47/13
f 25/47/14 26/30/14 28/4/14 27/11/14
f 27/11/15 28/4/15 30/3/15 29/12/15
f 29/12/16 30/3/16 32/16/16 31/19/16
f 31/19/17 32/16/17 34/15/17 33/20/17
f 33/20/18 34/15/18 36/28/18 35/36/18
f 35/36/19 36/28/19 38/27/19 37/7/19
f 37/7/20 38/27/20 40/48/20 39/8/20
f 39/8/21 40/48/21 24/24/21 21/33/21
f 18/26/22 20/49/22 40/48/22 38/27/22
f 5/50/23 3/31/23 22/34/23 25/47/23
f 15/35/24 13/17/24 33/20/24 35/36/24
f 4/22/25 6/29/25 26/30/25 23/23/25
f 14/14/26 16/25/26 36/28/26 34/15/26
f 11/18/27 9/9/27 29/12/27 31/19/27
f 1/32/28 19/5/28 39/8/28 21/33/28
f 10/2/29 12/13/29 32/16/29 30/3/29
f 20/49/30 2/21/30 24/24/30 40/48/30
f 7/10/31 5/50/31 25/47/31 27/11/31
f 18/26/15 17/51/15 19/52/15 20/49/15
f 20/49/16 19/52/16 1/53/16 2/21/16
f 2/21/17 1/53/17 3/54/17 4/22/17
f 4/22/18 3/54/18 5/55/18 6/29/18
f 6/29/19 5/55/19 7/56/19 8/1/19
f 8/1/20 7/56/20 9/57/20 10/2/20
f 10/2/21 9/57/21 11/58/21 12/13/21
f 12/13/12 11/58/12 13/59/12 14/14/12
f 14/14/13 13/59/13 15/60/13 16/25/13
f 16/25/14 15/60/14 17/51/14 18/26/14
f 48/61/23 50/62/23 70/63/23 68/64/23
f 59/65/26 57/66/26 77/67/26 79/68/26
f 49/69/25 47/70/25 67/71/25 69/72/25
f 52/73/28 54/74/28 74/75/28 72/76/28
f 53/77/30 51/78/30 71/79/30 73/80/30
f 42/81/27 44/82/27 63/83/27 64/84/27
f 56/85/10 58/86/10 78/87/10 76/88/10
f 46/89/31 48/61/31 68/64/31 66/90/31
f 43/91/29 41/92/29 61/93/29 62/94/29
f 57/66/7 55/95/7 75/96/7 77/67/7
f 41/97/32 43/98/32 45/99/32 47/100/32 49/101/32 51/102/32 53/103/32 55/104/32 57/105/32 59/106/32
f 61/93/16 64/84/16 63/83/16 62/94/16
f 62/94/15 63/83/15 66/90/15 65/107/15
f 65/107/14 66/90/14 68/64/14 67/71/14
f 67/71/13 68/64/13 70/63/13 69/72/13
f 69/72/12 70/63/12 72/76/12 71/79/12
f 71/79/21 72/76/21 74/75/21 73/80/21
f 73/80/20 74/75/20 76/88/20 75/96/20
f 75/96/19 76/88/19 78/87/19 77/67/19
f 77/67/18 78/87/18 80/108/18 79/68/18
f 79/68/17 80/108/17 64/84/17 61/93/17
f 58/86/24 60/109/24 80/108/24 78/87/24
f 45/110/1 43/91/1 62/94/1 65/107/1
f 55/95/22 53/77/22 73/80/22 75/96/22
f 44/82/3 46/89/3 66/90/3 63/83/3
f 54/74/2 56/85/2 76/88/2 74/75/2
f 51/78/6 49/69/6 69/72/6 71/79/6
f 41/92/4 59/65/4 79/68/4 61/93/4
f 50/62/9 52/73/9 72/76/9 70/63/9
f 60/109/5 42/81/5 64/84/5 80/108/5
f 47/70/8 45/110/8 65/107/8 67/71/8
f 58/86/13 57/111/13 59/112/13 60/109/13
f 60/109/12 59/112/12 41/113/12 42/81/12
f 42/81/21 41/113/21 43/114/21 44/82/21
f 44/82/20 43/114/20 45/115/20 46/89/20
f 46/89/19 45/115/19 47/116/19 48/61/19
f 48/61/18 47/116/18 49/117/18 50/62/18
f 50/62/17 49/117/17 51/118/17 52/73/17
f 52/73/16 51/118/16 53/119/16 54/74/16
f 54/74/15 53/119/15 55/120/15 56/85/15
f 56/85/14 55/120/14 57/111/14 58/86/14
