# 3ds Max Wavefront OBJ Exporter v0.97b - (c)2007 guruware
# File Created: 22.10.2016 00:12:24

mtllib Coin.mtl

#
# object Coin
#

v  34.0614 -5.2419 19.7440
v  19.6260 5.2419 34.1295
v  19.6260 -5.2419 34.1295
v  34.0614 5.2419 19.7440
v  39.3700 -5.2419 0.0681
v  39.3700 5.2419 0.0681
v  34.1295 -5.2419 -19.6260
v  34.1295 5.2419 -19.6260
v  19.7440 -5.2419 -34.0614
v  19.7440 5.2419 -34.0614
v  0.0681 -5.2419 -39.3700
v  0.0681 5.2419 -39.3700
v  -19.6260 -5.2419 -34.1295
v  -19.6260 5.2419 -34.1295
v  -34.0614 -5.2419 -19.7440
v  -34.0614 5.2419 -19.7440
v  -39.3700 -5.2419 -0.0681
v  -39.3700 5.2419 -0.0681
v  -34.1295 -5.2419 19.6260
v  -34.1295 5.2419 19.6260
v  -19.7440 -5.2419 34.0614
v  -19.7440 5.2419 34.0614
v  -0.0681 -5.2419 39.3700
v  -0.0681 5.2419 39.3700
v  0.0000 5.2419 -0.0000
v  0.0000 -5.2419 -0.0000
# 26 vertices

vn 0.6551 -0.6532 0.3797
vn 0.3774 0.6532 0.6564
vn 0.3774 -0.6532 0.6564
vn 0.6551 0.6532 0.3797
vn 0.7572 -0.6532 0.0013
vn 0.7572 0.6532 0.0013
vn 0.6564 -0.6532 -0.3774
vn 0.6564 0.6532 -0.3774
vn 0.3797 -0.6532 -0.6551
vn 0.3797 0.6532 -0.6551
vn 0.0013 -0.6532 -0.7572
vn 0.0013 0.6532 -0.7572
vn -0.3774 -0.6532 -0.6564
vn -0.3774 0.6532 -0.6564
vn -0.6551 -0.6532 -0.3797
vn -0.6551 0.6532 -0.3797
vn -0.7572 -0.6532 -0.0013
vn -0.7572 0.6532 -0.0013
vn -0.6564 -0.6532 0.3774
vn -0.6564 0.6532 0.3774
vn -0.3797 -0.6532 0.6551
vn -0.3797 0.6532 0.6551
vn -0.0013 -0.6532 0.7572
vn -0.0013 0.6532 0.7572
vn 0.0000 1.0000 -0.0000
vn 0.0000 -1.0000 -0.0000
# 26 vertex normals

vt 0.0742 0.7458 0.0000
vt 0.0083 0.5000 0.0000
vt 0.2542 0.9258 0.0000
vt 0.5000 0.9917 0.0000
vt 0.7458 0.9258 0.0000
vt 0.9258 0.7458 0.0000
vt 0.9917 0.5000 0.0000
vt 0.9258 0.2542 0.0000
vt 0.7458 0.0742 0.0000
vt 0.5000 0.0083 0.0000
vt 0.2542 0.0742 0.0000
vt 0.0742 0.2542 0.0000
vt 0.5000 0.5000 0.0000
# 13 texture coords

g Coin
usemtl tex_coin_tails_m
s 1
f 1/1/1 2/2/2 3/2/3 
f 2/2/2 1/1/1 4/1/4 
f 5/3/5 4/1/4 1/1/1 
f 4/1/4 5/3/5 6/3/6 
f 7/4/7 6/3/6 5/3/5 
f 6/3/6 7/4/7 8/4/8 
f 9/5/9 8/4/8 7/4/7 
f 8/4/8 9/5/9 10/5/10 
f 11/6/11 10/5/10 9/5/9 
f 10/5/10 11/6/11 12/6/12 
f 13/7/13 12/6/12 11/6/11 
f 12/6/12 13/7/13 14/7/14 
f 15/8/15 14/7/14 13/7/13 
f 14/7/14 15/8/15 16/8/16 
f 17/9/17 16/8/16 15/8/15 
f 16/8/16 17/9/17 18/9/18 
f 19/10/19 18/9/18 17/9/17 
f 18/9/18 19/10/19 20/10/20 
f 21/11/21 20/10/20 19/10/19 
f 20/10/20 21/11/21 22/11/22 
f 23/12/23 22/11/22 21/11/21 
f 22/11/22 23/12/23 24/12/24 
f 3/2/3 24/12/24 23/12/23 
f 24/12/24 3/2/3 2/2/2 
f 4/1/4 25/13/25 2/2/2 
f 6/3/6 25/13/25 4/1/4 
f 8/4/8 25/13/25 6/3/6 
f 10/5/10 25/13/25 8/4/8 
f 12/6/12 25/13/25 10/5/10 
f 14/7/14 25/13/25 12/6/12 
f 16/8/16 25/13/25 14/7/14 
f 18/9/18 25/13/25 16/8/16 
f 20/10/20 25/13/25 18/9/18 
f 22/11/22 25/13/25 20/10/20 
f 24/12/24 25/13/25 22/11/22 
f 25/13/25 24/12/24 2/2/2 
usemtl tex_coin_heads_m
f 23/12/23 26/13/26 3/2/3 
f 21/11/21 26/13/26 23/12/23 
f 19/10/19 26/13/26 21/11/21 
f 17/9/17 26/13/26 19/10/19 
f 15/8/15 26/13/26 17/9/17 
f 13/7/13 26/13/26 15/8/15 
f 11/6/11 26/13/26 13/7/13 
f 9/5/9 26/13/26 11/6/11 
f 7/4/7 26/13/26 9/5/9 
f 5/3/5 26/13/26 7/4/7 
f 1/1/1 26/13/26 5/3/5 
f 26/13/26 1/1/1 3/2/3 
# 0 polygons - 48 triangles

