# Blender v2.76 (sub 0) OBJ File: ''
# www.blender.org
mtllib egg.mtl
o drg_egg_fixed_0
v 0.201969 0.053181 -0.146739
v 0.077146 0.053181 -0.237430
v 0.416925 0.175021 -0.302917
v 0.159255 0.175021 -0.490130
v -0.077143 0.053181 -0.237428
v -0.159252 0.175021 -0.490130
v -0.201967 0.053181 -0.146739
v -0.416929 0.175021 -0.302917
v -0.249648 0.053181 0.000000
v -0.515351 0.175021 0.000000
v -0.416929 0.175021 0.302917
v -0.201967 0.053181 0.146739
v -0.159252 0.175021 0.490130
v -0.077143 0.053181 0.237430
v 0.159255 0.175021 0.490130
v 0.077146 0.053181 0.237430
v 0.416925 0.175021 0.302917
v 0.201969 0.053181 0.146739
v 0.515347 0.175021 0.000000
v 0.249652 0.053181 0.000000
v -0.541311 0.396522 -0.393286
v -0.206764 0.395822 -0.636351
v -0.669096 0.395522 0.000000
v -0.541311 0.395822 0.393286
v 0.206760 0.395822 0.636351
v -0.206764 0.395822 0.636351
v 0.669100 0.395822 0.000000
v 0.541315 0.395822 0.393286
v 0.541315 0.395822 -0.393286
v 0.206760 0.395822 -0.636351
v 0.604072 0.637276 -0.438889
v 0.230734 0.637276 -0.710136
v -0.230738 0.637276 -0.710136
v -0.604075 0.638169 -0.438889
v -0.746682 0.637276 0.000000
v -0.604075 0.637276 0.438887
v -0.230738 0.637276 0.710136
v 0.230734 0.637276 0.710136
v 0.604072 0.637276 0.438888
v 0.746682 0.637276 0.000000
v -0.591471 0.953878 -0.423623
v -0.225921 0.953914 -0.695316
v -0.731101 0.954002 0.000000
v -0.591471 0.953914 0.429730
v 0.225924 0.953914 0.695316
v -0.225921 0.953914 0.695316
v 0.731103 0.953914 0.000000
v 0.591473 0.953914 0.429730
v 0.591473 0.953798 -0.423623
v 0.225924 0.953914 -0.695316
v 0.528867 1.233671 -0.390353
v 0.202013 1.233671 -0.621724
v -0.202010 1.233671 -0.621724
v -0.528872 1.233671 -0.390353
v -0.653719 1.233417 0.000000
v -0.528872 1.233670 0.390355
v -0.202010 1.233670 0.621724
v 0.202013 1.233670 0.621724
v 0.528867 1.233670 0.390353
v 0.653727 1.234120 0.000000
v -0.431376 1.489259 -0.313415
v -0.164769 1.489259 -0.507115
v -0.533214 1.489259 0.000000
v -0.431376 1.489259 0.313416
v 0.164774 1.489259 0.507115
v -0.164769 1.489259 0.507115
v 0.533217 1.489259 0.000000
v 0.431387 1.489259 0.313416
v 0.431387 1.489401 -0.313415
v 0.164774 1.489259 -0.507115
v 0.315858 1.701625 -0.229481
v 0.120647 1.701625 -0.371310
v -0.120644 1.701625 -0.371310
v -0.315855 1.701625 -0.229481
v -0.390417 1.701625 0.000000
v -0.315855 1.701625 0.229481
v -0.120644 1.701625 0.371310
v 0.120647 1.701625 0.371310
v 0.315858 1.701625 0.229481
v 0.390414 1.701625 0.000000
v -0.175491 1.847922 -0.127501
v -0.067032 1.847922 -0.206301
v -0.216920 1.847922 0.000000
v -0.175491 1.847922 0.127502
v 0.067035 1.847922 0.206302
v -0.067032 1.847922 0.206302
v 0.216916 1.847922 0.000000
v 0.175494 1.847922 0.127502
v 0.175494 1.847922 -0.127501
v 0.067035 1.847922 -0.206301
v -0.000002 1.924374 0.000000
v -0.000002 0.002414 0.000000
vt 0.511678 0.125540
vt 0.449979 0.153645
vt 0.566806 0.224077
vt 0.466231 0.252932
vt 0.384699 0.153644
vt 0.368442 0.252930
vt 0.323002 0.125537
vt 0.267864 0.224072
vt 0.275406 0.067426
vt 0.161291 0.151686
vt 0.673380 0.151700
vt 0.559277 0.067432
vt 0.237197 0.310232
vt 0.359642 0.332233
vt 0.090646 0.252762
vt 0.475024 0.332234
vt 0.744013 0.252874
vt 0.597447 0.310128
vt 0.613833 0.390141
vt 0.479734 0.402963
vt 0.354927 0.402961
vt 0.220832 0.390292
vt 0.052125 0.360023
vt 0.782526 0.360020
vt 0.213299 0.493632
vt 0.352734 0.493267
vt 0.042524 0.496627
vt 0.481867 0.493267
vt 0.792138 0.496654
vt 0.621303 0.493632
vt 0.611330 0.592316
vt 0.479957 0.580971
vt 0.354718 0.580969
vt 0.223288 0.592271
vt 0.063275 0.624359
vt 0.771327 0.624592
vt 0.243044 0.695384
vt 0.360831 0.673905
vt 0.111227 0.747006
vt 0.473840 0.673904
vt 0.723405 0.747065
vt 0.591615 0.695402
vt 0.556898 0.793264
vt 0.463479 0.766607
vt 0.371193 0.766610
vt 0.277773 0.793271
vt 0.182041 0.854602
vt 0.652574 0.854643
vt 0.326213 0.884944
vt 0.386015 0.859252
vt 0.277659 0.939160
vt 0.448660 0.859250
vt 0.556942 0.939160
vt 0.508414 0.884965
vt 0.417286 0.985411
vt 0.417341 0.028195
vn 0.267300 -0.943800 -0.194200
vn 0.102100 -0.943800 -0.314300
vn 0.542200 -0.742200 -0.393900
vn 0.207100 -0.742200 -0.637400
vn -0.102100 -0.943800 -0.314300
vn -0.207100 -0.742200 -0.637400
vn -0.267300 -0.943800 -0.194200
vn -0.542700 -0.741800 -0.394000
vn -0.330400 -0.943800 -0.000000
vn -0.670100 -0.742300 -0.000200
vn -0.542200 -0.742200 0.393900
vn -0.267300 -0.943800 0.194200
vn -0.207100 -0.742200 0.637400
vn -0.102100 -0.943800 0.314300
vn 0.207100 -0.742200 0.637400
vn 0.102100 -0.943800 0.314300
vn 0.542200 -0.742200 0.393900
vn 0.267300 -0.943800 0.194200
vn 0.670100 -0.742200 0.000000
vn 0.330400 -0.943800 -0.000000
vn -0.729800 -0.431600 -0.530200
vn -0.278900 -0.432300 -0.857500
vn -0.901600 -0.432600 -0.000400
vn -0.729400 -0.432400 0.530100
vn 0.278600 -0.432300 0.857600
vn -0.278600 -0.432300 0.857600
vn 0.901700 -0.432300 0.000000
vn 0.729500 -0.432300 0.530000
vn 0.729500 -0.432300 -0.530000
vn 0.278600 -0.432300 -0.857600
vn 0.801700 -0.121100 -0.585300
vn 0.308200 -0.124600 -0.943100
vn -0.306600 -0.126200 -0.943400
vn -0.803100 -0.121700 -0.583300
vn -0.992100 -0.125500 -0.000800
vn -0.802500 -0.126100 0.583100
vn -0.306600 -0.126100 0.943500
vn 0.306500 -0.126200 0.943500
vn 0.802500 -0.126100 0.583100
vn 0.992000 -0.126100 0.000000
vn -0.802700 0.152400 -0.576600
vn -0.308500 0.157100 -0.938200
vn -0.988100 0.153900 -0.001500
vn -0.799600 0.151500 0.581100
vn 0.303800 0.153900 0.940200
vn -0.305300 0.155500 0.939500
vn 0.987800 0.155900 -0.001400
vn 0.801000 0.150500 0.579400
vn 0.804100 0.149700 -0.575400
vn 0.307500 0.152500 -0.939200
vn 0.758400 0.338100 -0.557300
vn 0.285900 0.343800 -0.894500
vn -0.289100 0.339300 -0.895100
vn -0.756900 0.335100 -0.561100
vn -0.939100 0.343500 -0.000000
vn -0.756900 0.340600 0.557800
vn -0.287100 0.340800 0.895200
vn 0.285900 0.343900 0.894400
vn 0.757000 0.342600 0.556400
vn 0.940100 0.340900 -0.000800
vn -0.705900 0.492100 -0.509400
vn -0.267500 0.488800 -0.830300
vn -0.873300 0.487200 0.000000
vn -0.705900 0.492100 0.509400
vn 0.269800 0.487300 0.830500
vn -0.267500 0.488800 0.830300
vn 0.872500 0.488600 0.000100
vn 0.704600 0.491200 0.512100
vn 0.704600 0.491300 -0.512100
vn 0.269800 0.487400 -0.830500
vn 0.611700 0.654400 -0.444500
vn 0.233700 0.654300 -0.719200
vn -0.233700 0.654300 -0.719200
vn -0.611800 0.654300 -0.444500
vn -0.756200 0.654300 0.000000
vn -0.611800 0.654300 0.444500
vn -0.233700 0.654300 0.719200
vn 0.233700 0.654300 0.719200
vn 0.611800 0.654300 0.444500
vn 0.756200 0.654400 0.000000
vn -0.422800 0.852500 -0.307200
vn -0.161500 0.852500 -0.497100
vn -0.522700 0.852500 0.000000
vn -0.422800 0.852500 0.307200
vn 0.161500 0.852500 0.497100
vn -0.161500 0.852500 0.497100
vn 0.522700 0.852500 0.000000
vn 0.422800 0.852500 0.307200
vn 0.422800 0.852500 -0.307200
vn 0.161500 0.852500 -0.497100
vn -0.000000 1.000000 0.000000
vn -0.000000 -1.000000 -0.000000
usemtl None
s 1
f 1/1/1 2/2/2 3/3/3
f 4/4/4 3/3/3 2/2/2
f 2/2/2 5/5/5 4/4/4
f 6/6/6 4/4/4 5/5/5
f 5/5/5 7/7/7 6/6/6
f 8/8/8 6/6/6 7/7/7
f 7/7/7 9/9/9 8/8/8
f 10/10/10 8/8/8 9/9/9
f 10/10/10 9/9/9 11/8/11
f 12/7/12 11/8/11 9/9/9
f 11/8/11 12/7/12 13/6/13
f 14/5/14 13/6/13 12/7/12
f 13/6/13 14/5/14 15/4/15
f 16/2/16 15/4/15 14/5/14
f 15/4/15 16/2/16 17/3/17
f 18/1/18 17/3/17 16/2/16
f 17/3/17 18/1/18 19/11/19
f 20/12/20 19/11/19 18/1/18
f 20/12/20 1/1/1 19/11/19
f 3/3/3 19/11/19 1/1/1
f 8/8/8 10/10/10 21/13/21
f 21/13/21 22/14/22 8/8/8
f 23/15/23 21/13/21 10/10/10
f 11/8/11 24/13/24 10/10/10
f 23/15/23 10/10/10 24/13/24
f 15/4/15 25/16/25 13/6/13
f 26/14/26 13/6/13 25/16/25
f 24/13/24 11/8/11 26/14/26
f 13/6/13 26/14/26 11/8/11
f 19/11/19 27/17/27 17/3/17
f 19/11/19 3/3/3 27/17/27
f 28/18/28 17/3/17 27/17/27
f 25/16/25 15/4/15 28/18/28
f 17/3/17 28/18/28 15/4/15
f 29/18/29 27/17/27 3/3/3
f 3/3/3 4/4/4 29/18/29
f 30/16/30 29/18/29 4/4/4
f 4/4/4 6/6/6 30/16/30
f 22/14/22 30/16/30 6/6/6
f 6/6/6 8/8/8 22/14/22
f 29/18/29 30/16/30 31/19/31
f 32/20/32 31/19/31 30/16/30
f 30/16/30 22/14/22 32/20/32
f 33/21/33 32/20/32 22/14/22
f 22/14/22 21/13/21 33/21/33
f 34/22/34 33/21/33 21/13/21
f 21/13/21 23/15/23 34/22/34
f 35/23/35 34/22/34 23/15/23
f 35/23/35 23/15/23 36/22/36
f 24/13/24 36/22/36 23/15/23
f 36/22/36 24/13/24 37/21/37
f 26/14/26 37/21/37 24/13/24
f 37/21/37 26/14/26 38/20/38
f 25/16/25 38/20/38 26/14/26
f 38/20/38 25/16/25 39/19/39
f 28/18/28 39/19/39 25/16/25
f 39/19/39 28/18/28 40/24/40
f 27/17/27 40/24/40 28/18/28
f 27/17/27 29/18/29 40/24/40
f 31/19/31 40/24/40 29/18/29
f 34/22/34 35/23/35 41/25/41
f 41/25/41 42/26/42 34/22/34
f 43/27/43 41/25/41 35/23/35
f 36/22/36 44/25/44 35/23/35
f 43/27/43 35/23/35 44/25/44
f 38/20/38 45/28/45 37/21/37
f 46/26/46 37/21/37 45/28/45
f 44/25/44 36/22/36 46/26/46
f 37/21/37 46/26/46 36/22/36
f 40/24/40 47/29/47 39/19/39
f 40/24/40 31/19/31 47/29/47
f 48/30/48 39/19/39 47/29/47
f 45/28/45 38/20/38 48/30/48
f 39/19/39 48/30/48 38/20/38
f 49/30/49 47/29/47 31/19/31
f 31/19/31 32/20/32 49/30/49
f 50/28/50 49/30/49 32/20/32
f 32/20/32 33/21/33 50/28/50
f 42/26/42 50/28/50 33/21/33
f 33/21/33 34/22/34 42/26/42
f 49/30/49 50/28/50 51/31/51
f 52/32/52 51/31/51 50/28/50
f 50/28/50 42/26/42 52/32/52
f 53/33/53 52/32/52 42/26/42
f 42/26/42 41/25/41 53/33/53
f 54/34/54 53/33/53 41/25/41
f 41/25/41 43/27/43 54/34/54
f 55/35/55 54/34/54 43/27/43
f 55/35/55 43/27/43 56/34/56
f 44/25/44 56/34/56 43/27/43
f 56/34/56 44/25/44 57/33/57
f 46/26/46 57/33/57 44/25/44
f 57/33/57 46/26/46 58/32/58
f 45/28/45 58/32/58 46/26/46
f 58/32/58 45/28/45 59/31/59
f 48/30/48 59/31/59 45/28/45
f 59/31/59 48/30/48 60/36/60
f 47/29/47 60/36/60 48/30/48
f 47/29/47 49/30/49 60/36/60
f 51/31/51 60/36/60 49/30/49
f 54/34/54 55/35/55 61/37/61
f 61/37/61 62/38/62 54/34/54
f 63/39/63 61/37/61 55/35/55
f 56/34/56 64/37/64 55/35/55
f 63/39/63 55/35/55 64/37/64
f 58/32/58 65/40/65 57/33/57
f 66/38/66 57/33/57 65/40/65
f 64/37/64 56/34/56 66/38/66
f 57/33/57 66/38/66 56/34/56
f 60/36/60 67/41/67 59/31/59
f 60/36/60 51/31/51 67/41/67
f 68/42/68 59/31/59 67/41/67
f 65/40/65 58/32/58 68/42/68
f 59/31/59 68/42/68 58/32/58
f 69/42/69 67/41/67 51/31/51
f 51/31/51 52/32/52 69/42/69
f 70/40/70 69/42/69 52/32/52
f 52/32/52 53/33/53 70/40/70
f 62/38/62 70/40/70 53/33/53
f 53/33/53 54/34/54 62/38/62
f 69/42/69 70/40/70 71/43/71
f 72/44/72 71/43/71 70/40/70
f 70/40/70 62/38/62 72/44/72
f 73/45/73 72/44/72 62/38/62
f 62/38/62 61/37/61 73/45/73
f 74/46/74 73/45/73 61/37/61
f 61/37/61 63/39/63 74/46/74
f 75/47/75 74/46/74 63/39/63
f 75/47/75 63/39/63 76/46/76
f 64/37/64 76/46/76 63/39/63
f 76/46/76 64/37/64 77/45/77
f 66/38/66 77/45/77 64/37/64
f 77/45/77 66/38/66 78/44/78
f 65/40/65 78/44/78 66/38/66
f 78/44/78 65/40/65 79/43/79
f 68/42/68 79/43/79 65/40/65
f 79/43/79 68/42/68 80/48/80
f 67/41/67 80/48/80 68/42/68
f 67/41/67 69/42/69 80/48/80
f 71/43/71 80/48/80 69/42/69
f 74/46/74 75/47/75 81/49/81
f 81/49/81 82/50/82 74/46/74
f 83/51/83 81/49/81 75/47/75
f 76/46/76 84/49/84 75/47/75
f 83/51/83 75/47/75 84/49/84
f 78/44/78 85/52/85 77/45/77
f 86/50/86 77/45/77 85/52/85
f 84/49/84 76/46/76 86/50/86
f 77/45/77 86/50/86 76/46/76
f 80/48/80 87/53/87 79/43/79
f 80/48/80 71/43/71 87/53/87
f 88/54/88 79/43/79 87/53/87
f 85/52/85 78/44/78 88/54/88
f 79/43/79 88/54/88 78/44/78
f 89/54/89 87/53/87 71/43/71
f 71/43/71 72/44/72 89/54/89
f 90/52/90 89/54/89 72/44/72
f 72/44/72 73/45/73 90/52/90
f 82/50/82 90/52/90 73/45/73
f 73/45/73 74/46/74 82/50/82
f 90/52/90 91/55/91 89/54/89
f 86/50/86 91/55/91 84/49/84
f 85/52/85 91/55/91 86/50/86
f 88/54/88 91/55/91 85/52/85
f 87/53/87 91/55/91 88/54/88
f 89/54/89 91/55/91 87/53/87
f 82/50/82 91/55/91 90/52/90
f 81/49/81 91/55/91 82/50/82
f 83/51/83 91/55/91 81/49/81
f 84/49/84 91/55/91 83/51/83
f 1/1/1 92/56/92 2/2/2
f 2/2/2 92/56/92 5/5/5
f 5/5/5 92/56/92 7/7/7
f 7/7/7 92/56/92 9/9/9
f 9/9/9 92/56/92 12/7/12
f 12/7/12 92/56/92 14/5/14
f 14/5/14 92/56/92 16/2/16
f 16/2/16 92/56/92 18/1/18
f 18/1/18 92/56/92 20/12/20
f 20/12/20 92/56/92 1/1/1
