# Blender v2.78 (sub 0) OBJ File: 'fence wood.blend'
# www.blender.org
mtllib fence wood.mtl
o Cube.002_Cube.004
v -0.791649 0.203285 0.080676
v -0.791649 0.345327 0.080676
v -0.791677 0.203285 0.047586
v -0.791677 0.345327 0.047586
v 0.973735 0.203285 0.079158
v 0.973735 0.345327 0.079158
v 0.973707 0.203285 0.046068
v 0.973707 0.345327 0.046068
v -0.791649 0.853295 0.080677
v -0.791649 0.995337 0.080677
v -0.791677 0.853295 0.047586
v -0.791677 0.995337 0.047586
v 0.973735 0.853295 0.079159
v 0.973735 0.995337 0.079159
v 0.973707 0.853295 0.046068
v 0.973707 0.995337 0.046068
v -0.573847 0.005410 0.078209
v -0.573788 0.005410 0.146472
v -0.720414 0.005410 0.146598
v -0.720472 0.005410 0.078335
v -0.573847 1.142182 0.078209
v -0.573788 1.142182 0.146472
v -0.720414 1.142182 0.146598
v -0.720472 1.142182 0.078335
v -0.690461 1.186175 0.078309
v -0.603858 1.186175 0.078235
v -0.677778 1.200440 0.078298
v -0.663009 1.209408 0.078285
v -0.647160 1.212467 0.078272
v -0.631310 1.209408 0.078258
v -0.616541 1.200440 0.078245
v -0.603799 1.186175 0.146497
v -0.690403 1.186175 0.146572
v -0.616482 1.200440 0.146508
v -0.631252 1.209408 0.146521
v -0.647101 1.212467 0.146535
v -0.662951 1.209408 0.146548
v -0.677720 1.200440 0.146561
v -0.280596 0.005410 0.077957
v -0.280537 0.005410 0.146220
v -0.427163 0.005410 0.146346
v -0.427221 0.005410 0.078083
v -0.280596 1.142182 0.077957
v -0.280537 1.142182 0.146220
v -0.427163 1.142182 0.146346
v -0.427221 1.142182 0.078083
v -0.397210 1.186175 0.078057
v -0.310607 1.186175 0.077982
v -0.384527 1.200440 0.078046
v -0.369758 1.209408 0.078033
v -0.353908 1.212467 0.078020
v -0.338059 1.209408 0.078006
v -0.323290 1.200440 0.077993
v -0.310548 1.186175 0.146245
v -0.397151 1.186175 0.146320
v -0.323231 1.200440 0.146256
v -0.338000 1.209408 0.146269
v -0.353850 1.212467 0.146283
v -0.369699 1.209408 0.146296
v -0.384469 1.200440 0.146309
v 0.012656 0.005410 0.077704
v 0.012714 0.005410 0.145967
v -0.133911 0.005410 0.146093
v -0.133970 0.005410 0.077830
v 0.012656 1.142182 0.077704
v 0.012714 1.142182 0.145967
v -0.133911 1.142182 0.146093
v -0.133970 1.142182 0.077830
v -0.103959 1.186175 0.077805
v -0.017356 1.186175 0.077730
v -0.091276 1.200440 0.077794
v -0.076507 1.209408 0.077781
v -0.060657 1.212467 0.077767
v -0.044808 1.209408 0.077754
v -0.030038 1.200440 0.077741
v -0.017297 1.186175 0.145993
v -0.103900 1.186175 0.146068
v -0.029980 1.200440 0.146004
v -0.044749 1.209408 0.146017
v -0.060599 1.212467 0.146030
v -0.076448 1.209408 0.146044
v -0.091217 1.200440 0.146057
v 0.305907 0.005410 0.077452
v 0.305965 0.005410 0.145715
v 0.159340 0.005410 0.145841
v 0.159281 0.005410 0.077578
v 0.305907 1.142182 0.077452
v 0.305965 1.142182 0.145715
v 0.159340 1.142182 0.145841
v 0.159281 1.142182 0.077578
v 0.189292 1.186175 0.077553
v 0.275896 1.186175 0.077478
v 0.201975 1.200440 0.077542
v 0.216745 1.209408 0.077529
v 0.232594 1.212467 0.077515
v 0.248444 1.209408 0.077502
v 0.263213 1.200440 0.077489
v 0.275954 1.186175 0.145741
v 0.189351 1.186175 0.145815
v 0.263272 1.200440 0.145752
v 0.248502 1.209408 0.145765
v 0.232653 1.212467 0.145778
v 0.216803 1.209408 0.145792
v 0.202034 1.200440 0.145805
v 0.599158 0.005410 0.077200
v 0.599217 0.005410 0.145463
v 0.452591 0.005410 0.145589
v 0.452533 0.005410 0.077326
v 0.599158 1.142182 0.077200
v 0.599217 1.142182 0.145463
v 0.452591 1.142182 0.145589
v 0.452533 1.142182 0.077326
v 0.482544 1.186175 0.077300
v 0.569147 1.186175 0.077226
v 0.495227 1.200440 0.077289
v 0.509996 1.209408 0.077277
v 0.525845 1.212467 0.077263
v 0.541695 1.209408 0.077250
v 0.556464 1.200440 0.077237
v 0.569205 1.186175 0.145489
v 0.482602 1.186175 0.145563
v 0.556523 1.200440 0.145500
v 0.541753 1.209408 0.145512
v 0.525904 1.212467 0.145526
v 0.510055 1.209408 0.145540
v 0.495285 1.200440 0.145552
v 0.892409 0.005410 0.076948
v 0.892468 0.005410 0.145211
v 0.745842 0.005410 0.145337
v 0.745784 0.005410 0.077074
v 0.892409 1.142182 0.076948
v 0.892468 1.142182 0.145211
v 0.745842 1.142182 0.145337
v 0.745784 1.142182 0.077074
v 0.775795 1.186175 0.077048
v 0.862398 1.186175 0.076974
v 0.788478 1.200440 0.077037
v 0.803247 1.209408 0.077025
v 0.819097 1.212467 0.077011
v 0.834946 1.209408 0.076997
v 0.849715 1.200440 0.076985
v 0.862457 1.186175 0.145237
v 0.775854 1.186175 0.145311
v 0.849774 1.200440 0.145248
v 0.835005 1.209408 0.145260
v 0.819155 1.212467 0.145274
v 0.803306 1.209408 0.145288
v 0.788536 1.200440 0.145300
vt 0.0000 0.0000
vt 0.0000 0.0000
vt 0.0000 0.0000
vt 0.0000 0.0000
vt 0.4734 1.0004
vt 0.4201 1.0004
vt 0.4201 -0.1855
vt 0.4734 -0.1855
vt 0.0000 0.0000
vt 0.0000 0.0000
vt 0.0000 0.0000
vt 0.0000 0.0000
vt 0.3509 -0.1557
vt 0.4026 -0.1557
vt 0.4026 0.9951
vt 0.3509 0.9951
vt 0.5433 0.7117
vt 0.5433 -0.4741
vt 0.5534 -0.4741
vt 0.5534 0.7117
vt 0.5635 -0.4741
vt 0.5635 0.7117
vt 0.5535 0.7117
vt 0.5534 -0.4741
vt 0.0000 0.0000
vt 0.0000 0.0000
vt 0.0000 0.0000
vt 0.0000 0.0000
vt 0.4734 1.0004
vt 0.4201 1.0004
vt 0.4201 -0.1855
vt 0.4734 -0.1855
vt 0.0000 0.0000
vt 0.0000 0.0000
vt 0.0000 0.0000
vt 0.0000 0.0000
vt 0.3509 -0.1557
vt 0.4026 -0.1557
vt 0.4026 0.9951
vt 0.3509 0.9951
vt 0.5433 0.7117
vt 0.5433 -0.4741
vt 0.5534 -0.4741
vt 0.5534 0.7117
vt 0.5635 -0.4741
vt 0.5635 0.7117
vt 0.5535 0.7117
vt 0.5534 -0.4741
vt 0.5541 0.0038
vt 0.5541 0.0343
vt 0.4886 0.0343
vt 0.4886 0.0038
vt 0.2635 0.5104
vt 0.2635 0.0027
vt 0.3290 0.0027
vt 0.3290 0.5104
vt 0.3156 0.5301
vt 0.3099 0.5364
vt 0.3033 0.5404
vt 0.2962 0.5418
vt 0.2892 0.5404
vt 0.2826 0.5364
vt 0.2769 0.5301
vt 0.3708 0.0289
vt 0.3708 0.5365
vt 0.3403 0.5365
vt 0.3403 0.0289
vt 0.4014 0.0289
vt 0.4014 0.5365
vt 0.3709 0.5365
vt 0.3709 0.0289
vt 0.3708 0.5603
vt 0.3403 0.5603
vt 0.4073 0.0054
vt 0.4073 0.5130
vt 0.3939 0.5327
vt 0.3882 0.5391
vt 0.3816 0.5431
vt 0.3745 0.5444
vt 0.3675 0.5431
vt 0.3609 0.5391
vt 0.3552 0.5327
vt 0.3418 0.5130
vt 0.3418 0.0054
vt 0.3953 0.2596
vt 0.3749 0.2596
vt 0.3749 0.2469
vt 0.3953 0.2469
vt 0.3749 0.2354
vt 0.3953 0.2354
vt 0.3749 0.2247
vt 0.3953 0.2247
vt 0.3749 0.2140
vt 0.3953 0.2140
vt 0.3749 0.2025
vt 0.3953 0.2025
vt 0.3749 0.1898
vt 0.3953 0.1898
vt 0.3709 0.5603
vt 0.4014 0.5603
vt 0.3293 0.0082
vt 0.3293 0.0387
vt 0.2638 0.0387
vt 0.2638 0.0082
vt 0.0402 0.5192
vt 0.0402 0.0115
vt 0.1057 0.0115
vt 0.1057 0.5192
vt 0.0923 0.5388
vt 0.0866 0.5452
vt 0.0800 0.5492
vt 0.0730 0.5505
vt 0.0659 0.5492
vt 0.0593 0.5452
vt 0.0536 0.5388
vt 0.1453 0.0104
vt 0.1453 0.5181
vt 0.1148 0.5181
vt 0.1148 0.0104
vt 0.1759 0.0104
vt 0.1759 0.5181
vt 0.1454 0.5181
vt 0.1454 0.0104
vt 0.1453 0.5418
vt 0.1148 0.5418
vt 0.1717 0.0115
vt 0.1717 0.5192
vt 0.1583 0.5388
vt 0.1526 0.5452
vt 0.1460 0.5492
vt 0.1389 0.5505
vt 0.1319 0.5492
vt 0.1253 0.5452
vt 0.1196 0.5388
vt 0.1062 0.5192
vt 0.1062 0.0115
vt 0.1671 0.2342
vt 0.1466 0.2342
vt 0.1466 0.2215
vt 0.1671 0.2215
vt 0.1466 0.2100
vt 0.1671 0.2100
vt 0.1466 0.1993
vt 0.1671 0.1993
vt 0.1466 0.1886
vt 0.1671 0.1886
vt 0.1466 0.1771
vt 0.1671 0.1771
vt 0.1466 0.1644
vt 0.1671 0.1644
vt 0.1454 0.5418
vt 0.1759 0.5418
vt 0.2982 0.0115
vt 0.2982 0.0420
vt 0.2327 0.0420
vt 0.2327 0.0115
vt 0.2667 0.9513
vt 0.2668 0.4436
vt 0.3322 0.4436
vt 0.3322 0.9513
vt 0.3188 0.9709
vt 0.3132 0.9773
vt 0.3066 0.9813
vt 0.2995 0.9826
vt 0.2924 0.9813
vt 0.2858 0.9773
vt 0.2802 0.9709
vt 0.3698 0.1809
vt 0.3698 0.6886
vt 0.3394 0.6886
vt 0.3394 0.1809
vt 0.4005 0.1809
vt 0.4005 0.6886
vt 0.3700 0.6886
vt 0.3700 0.1809
vt 0.3698 0.7124
vt 0.3394 0.7124
vt 0.3982 0.4436
vt 0.3982 0.9513
vt 0.3848 0.9709
vt 0.3791 0.9773
vt 0.3725 0.9813
vt 0.3655 0.9826
vt 0.3584 0.9813
vt 0.3518 0.9773
vt 0.3461 0.9709
vt 0.3327 0.9513
vt 0.3327 0.4436
vt 0.3895 0.6436
vt 0.3691 0.6436
vt 0.3691 0.6309
vt 0.3895 0.6309
vt 0.3691 0.6195
vt 0.3895 0.6195
vt 0.3691 0.6087
vt 0.3895 0.6087
vt 0.3691 0.5980
vt 0.3895 0.5980
vt 0.3691 0.5865
vt 0.3895 0.5865
vt 0.3691 0.5738
vt 0.3895 0.5738
vt 0.3700 0.7124
vt 0.4005 0.7124
vt 0.6358 0.1309
vt 0.6358 0.1614
vt 0.5704 0.1614
vt 0.5704 0.1309
vt 0.5700 0.6219
vt 0.5700 0.1143
vt 0.6355 0.1143
vt 0.6355 0.6219
vt 0.6221 0.6416
vt 0.6164 0.6479
vt 0.6098 0.6520
vt 0.6027 0.6533
vt 0.5956 0.6520
vt 0.5891 0.6479
vt 0.5834 0.6416
vt 0.6067 0.2143
vt 0.6067 0.7219
vt 0.5763 0.7219
vt 0.5763 0.2143
vt 0.6374 0.2143
vt 0.6374 0.7219
vt 0.6069 0.7219
vt 0.6069 0.2143
vt 0.6067 0.7457
vt 0.5763 0.7457
vt 0.7014 0.1143
vt 0.7014 0.6219
vt 0.6880 0.6416
vt 0.6824 0.6479
vt 0.6758 0.6520
vt 0.6687 0.6533
vt 0.6616 0.6520
vt 0.6550 0.6479
vt 0.6494 0.6416
vt 0.6359 0.6219
vt 0.6359 0.1143
vt 0.6264 0.6867
vt 0.6060 0.6867
vt 0.6060 0.6740
vt 0.6264 0.6740
vt 0.6060 0.6625
vt 0.6264 0.6625
vt 0.6060 0.6518
vt 0.6264 0.6518
vt 0.6060 0.6410
vt 0.6264 0.6410
vt 0.6060 0.6295
vt 0.6264 0.6295
vt 0.6060 0.6169
vt 0.6264 0.6169
vt 0.6069 0.7457
vt 0.6374 0.7457
vt 0.7795 0.0782
vt 0.7795 0.1086
vt 0.7140 0.1086
vt 0.7140 0.0782
vt 0.7192 0.5136
vt 0.7192 0.0059
vt 0.7847 0.0059
vt 0.7847 0.5136
vt 0.7713 0.5332
vt 0.7656 0.5396
vt 0.7590 0.5436
vt 0.7520 0.5450
vt 0.7449 0.5436
vt 0.7383 0.5396
vt 0.7326 0.5332
vt 0.7466 0.0448
vt 0.7466 0.5525
vt 0.7162 0.5525
vt 0.7162 0.0448
vt 0.7773 0.0448
vt 0.7773 0.5525
vt 0.7468 0.5525
vt 0.7468 0.0448
vt 0.7466 0.5763
vt 0.7162 0.5763
vt 0.8507 0.0059
vt 0.8507 0.5136
vt 0.8373 0.5332
vt 0.8316 0.5396
vt 0.8250 0.5436
vt 0.8179 0.5450
vt 0.8108 0.5436
vt 0.8042 0.5396
vt 0.7986 0.5332
vt 0.7852 0.5136
vt 0.7852 0.0059
vt 0.7701 0.4645
vt 0.7496 0.4645
vt 0.7496 0.4518
vt 0.7701 0.4518
vt 0.7496 0.4403
vt 0.7701 0.4403
vt 0.7496 0.4296
vt 0.7701 0.4296
vt 0.7496 0.4188
vt 0.7701 0.4188
vt 0.7496 0.4073
vt 0.7701 0.4073
vt 0.7496 0.3946
vt 0.7701 0.3946
vt 0.7468 0.5763
vt 0.7773 0.5763
vt 0.9821 0.1655
vt 0.9821 0.1960
vt 0.9166 0.1960
vt 0.9166 0.1655
vt 0.8712 0.5383
vt 0.8712 0.0307
vt 0.9367 0.0307
vt 0.9367 0.5383
vt 0.9233 0.5580
vt 0.9176 0.5643
vt 0.9110 0.5683
vt 0.9039 0.5697
vt 0.8968 0.5683
vt 0.8903 0.5643
vt 0.8846 0.5580
vt 0.9611 0.0115
vt 0.9611 0.5192
vt 0.9306 0.5192
vt 0.9306 0.0115
vt 0.9917 0.0115
vt 0.9917 0.5192
vt 0.9612 0.5192
vt 0.9612 0.0115
vt 0.9611 0.5429
vt 0.9306 0.5429
vt 1.0026 0.0307
vt 1.0026 0.5383
vt 0.9892 0.5580
vt 0.9836 0.5643
vt 0.9770 0.5683
vt 0.9699 0.5697
vt 0.9628 0.5683
vt 0.9562 0.5643
vt 0.9506 0.5580
vt 0.9371 0.5383
vt 0.9371 0.0307
vt 0.9527 0.3233
vt 0.9322 0.3233
vt 0.9322 0.3106
vt 0.9527 0.3106
vt 0.9322 0.2991
vt 0.9527 0.2991
vt 0.9322 0.2883
vt 0.9527 0.2883
vt 0.9322 0.2776
vt 0.9527 0.2776
vt 0.9322 0.2661
vt 0.9527 0.2661
vt 0.9322 0.2534
vt 0.9527 0.2534
vt 0.9612 0.5429
vt 0.9917 0.5429
vn -1.0000 0.0000 0.0009
vn -0.0009 0.0000 -1.0000
vn 1.0000 0.0000 -0.0009
vn 0.0009 0.0000 1.0000
vn 0.0000 -1.0000 0.0000
vn 0.0000 1.0000 0.0000
vn 0.8261 0.5635 -0.0007
vn -0.7473 0.6644 0.0006
vn -0.5190 0.8548 0.0004
vn -0.1895 0.9819 0.0002
vn 0.1895 0.9819 -0.0002
vn 0.5190 0.8548 -0.0004
vn 0.7473 0.6644 -0.0006
vn -0.8261 0.5635 0.0007
vn 0.7474 0.6644 -0.0006
usemtl Material.004
s off
f 1/1/1 2/2/1 4/3/1 3/4/1
f 3/5/2 4/6/2 8/7/2 7/8/2
f 7/9/3 8/10/3 6/11/3 5/12/3
f 5/13/4 6/14/4 2/15/4 1/16/4
f 3/17/5 7/18/5 5/19/5 1/20/5
f 8/21/6 4/22/6 2/23/6 6/24/6
f 9/25/1 10/26/1 12/27/1 11/28/1
f 11/29/2 12/30/2 16/31/2 15/32/2
f 15/33/3 16/34/3 14/35/3 13/36/3
f 13/37/4 14/38/4 10/39/4 9/40/4
f 11/41/5 15/42/5 13/43/5 9/44/5
f 16/45/6 12/46/6 10/47/6 14/48/6
usemtl Material.003
f 17/49/5 18/50/5 19/51/5 20/52/5
f 21/53/2 17/54/2 20/55/2 24/56/2 25/57/2 27/58/2 28/59/2 29/60/2 30/61/2 31/62/2 26/63/2
f 17/64/3 21/65/3 22/66/3 18/67/3
f 19/68/1 23/69/1 24/70/1 20/71/1
f 21/65/7 26/72/7 32/73/7 22/66/7
f 18/74/4 22/75/4 32/76/4 34/77/4 35/78/4 36/79/4 37/80/4 38/81/4 33/82/4 23/83/4 19/84/4
f 25/85/8 33/86/8 38/87/8 27/88/8
f 27/88/9 38/87/9 37/89/9 28/90/9
f 28/90/10 37/89/10 36/91/10 29/92/10
f 29/92/11 36/91/11 35/93/11 30/94/11
f 30/94/12 35/93/12 34/95/12 31/96/12
f 31/96/13 34/95/13 32/97/13 26/98/13
f 25/99/14 24/70/14 23/69/14 33/100/14
f 39/101/5 40/102/5 41/103/5 42/104/5
f 43/105/2 39/106/2 42/107/2 46/108/2 47/109/2 49/110/2 50/111/2 51/112/2 52/113/2 53/114/2 48/115/2
f 39/116/3 43/117/3 44/118/3 40/119/3
f 41/120/1 45/121/1 46/122/1 42/123/1
f 43/117/7 48/124/7 54/125/7 44/118/7
f 40/126/4 44/127/4 54/128/4 56/129/4 57/130/4 58/131/4 59/132/4 60/133/4 55/134/4 45/135/4 41/136/4
f 47/137/8 55/138/8 60/139/8 49/140/8
f 49/140/9 60/139/9 59/141/9 50/142/9
f 50/142/10 59/141/10 58/143/10 51/144/10
f 51/144/11 58/143/11 57/145/11 52/146/11
f 52/146/12 57/145/12 56/147/12 53/148/12
f 53/148/13 56/147/13 54/149/13 48/150/13
f 47/151/14 46/122/14 45/121/14 55/152/14
f 61/153/5 62/154/5 63/155/5 64/156/5
f 65/157/2 61/158/2 64/159/2 68/160/2 69/161/2 71/162/2 72/163/2 73/164/2 74/165/2 75/166/2 70/167/2
f 61/168/3 65/169/3 66/170/3 62/171/3
f 63/172/1 67/173/1 68/174/1 64/175/1
f 65/169/7 70/176/7 76/177/7 66/170/7
f 62/178/4 66/179/4 76/180/4 78/181/4 79/182/4 80/183/4 81/184/4 82/185/4 77/186/4 67/187/4 63/188/4
f 69/189/8 77/190/8 82/191/8 71/192/8
f 71/192/9 82/191/9 81/193/9 72/194/9
f 72/194/10 81/193/10 80/195/10 73/196/10
f 73/196/11 80/195/11 79/197/11 74/198/11
f 74/198/12 79/197/12 78/199/12 75/200/12
f 75/200/13 78/199/13 76/201/13 70/202/13
f 69/203/14 68/174/14 67/173/14 77/204/14
f 83/205/5 84/206/5 85/207/5 86/208/5
f 87/209/2 83/210/2 86/211/2 90/212/2 91/213/2 93/214/2 94/215/2 95/216/2 96/217/2 97/218/2 92/219/2
f 83/220/3 87/221/3 88/222/3 84/223/3
f 85/224/1 89/225/1 90/226/1 86/227/1
f 87/221/7 92/228/7 98/229/7 88/222/7
f 84/230/4 88/231/4 98/232/4 100/233/4 101/234/4 102/235/4 103/236/4 104/237/4 99/238/4 89/239/4 85/240/4
f 91/241/8 99/242/8 104/243/8 93/244/8
f 93/244/9 104/243/9 103/245/9 94/246/9
f 94/246/10 103/245/10 102/247/10 95/248/10
f 95/248/11 102/247/11 101/249/11 96/250/11
f 96/250/12 101/249/12 100/251/12 97/252/12
f 97/252/13 100/251/13 98/253/13 92/254/13
f 91/255/14 90/226/14 89/225/14 99/256/14
f 105/257/5 106/258/5 107/259/5 108/260/5
f 109/261/2 105/262/2 108/263/2 112/264/2 113/265/2 115/266/2 116/267/2 117/268/2 118/269/2 119/270/2 114/271/2
f 105/272/3 109/273/3 110/274/3 106/275/3
f 107/276/1 111/277/1 112/278/1 108/279/1
f 109/273/7 114/280/7 120/281/7 110/274/7
f 106/282/4 110/283/4 120/284/4 122/285/4 123/286/4 124/287/4 125/288/4 126/289/4 121/290/4 111/291/4 107/292/4
f 113/293/8 121/294/8 126/295/8 115/296/8
f 115/296/9 126/295/9 125/297/9 116/298/9
f 116/298/10 125/297/10 124/299/10 117/300/10
f 117/300/11 124/299/11 123/301/11 118/302/11
f 118/302/12 123/301/12 122/303/12 119/304/12
f 119/304/13 122/303/13 120/305/13 114/306/13
f 113/307/14 112/278/14 111/277/14 121/308/14
f 127/309/5 128/310/5 129/311/5 130/312/5
f 131/313/2 127/314/2 130/315/2 134/316/2 135/317/2 137/318/2 138/319/2 139/320/2 140/321/2 141/322/2 136/323/2
f 127/324/3 131/325/3 132/326/3 128/327/3
f 129/328/1 133/329/1 134/330/1 130/331/1
f 131/325/7 136/332/7 142/333/7 132/326/7
f 128/334/4 132/335/4 142/336/4 144/337/4 145/338/4 146/339/4 147/340/4 148/341/4 143/342/4 133/343/4 129/344/4
f 135/345/8 143/346/8 148/347/8 137/348/8
f 137/348/9 148/347/9 147/349/9 138/350/9
f 138/350/10 147/349/10 146/351/10 139/352/10
f 139/352/11 146/351/11 145/353/11 140/354/11
f 140/354/12 145/353/12 144/355/12 141/356/12
f 141/356/15 144/355/15 142/357/15 136/358/15
f 135/359/14 134/330/14 133/329/14 143/360/14
